# xmcd CD database file
#
# Track frame offsets:
#	150
#	14721
#	40278
#	66023
#	72239
#	93719
#	105738
#	114532
#	127526
#	149577
#	168854
#	191936
#
# Disc length: 2866 seconds
#
# Revision: 2
# Processed by: cddbd v1.5.1PL0 Copyright (c) Steve Scherf et al.
# Submitted via: CDex 1.51
#
DISCID=ae0b300c
DTITLE=Li Sounalhè - Un viadjo
DYEAR=1900
DGENRE=Country
TTITLE0=Un viadjo
TTITLE1=Valzer di Sounadou
TTITLE2=Suite d'Urbiano
TTITLE3=Rico e Zaira
TTITLE4=La Palud
TTITLE5=Tarantella di Venanzio
TTITLE6=Babina
TTITLE7=Corende di Viù
TTITLE8=Les Voleurs
TTITLE9=Anout e bà
TTITLE10=Barba Djenn d'Oudrà
TTITLE11=Li Sounalhè
EXTD=
EXTT0=
EXTT1=
EXTT2=
EXTT3=
EXTT4=
EXTT5=
EXTT6=
EXTT7=
EXTT8=
EXTT9=
EXTT10=
EXTT11=
PLAYORDER=
